<svg width="24" height="24" viewBox="0 0 24 24" fill="none" xmlns="http://www.w3.org/2000/svg">
<path d="M9.0325 12.0437C9.31842 12.6164 9.76061 13.0805 10.2703 13.3977C10.7817 13.7149 11.3625 13.8831 11.9449 13.8831C12.5274 13.8831 13.1081 13.717 13.6196 13.3998C14.1293 13.0826 14.5715 12.6164 14.8574 12.0437C14.3797 12.3822 13.9091 12.6526 13.4225 12.8293C12.9377 13.0081 12.4404 13.0975 11.9449 13.0996C11.4477 13.0996 10.9522 13.0102 10.4674 12.8314C9.98082 12.6547 9.51021 12.3843 9.0325 12.0437Z" fill="url(#paint0_linear_296_2736)"/>
<path d="M1.95378 5.62464L10.8498 0.281333C11.4597 -0.0856425 12.222 -0.0945067 12.8389 0.260059L21.9318 5.46331C22.5416 5.81256 22.921 6.46673 22.921 7.16877V14.3452C22.921 14.4391 22.9051 14.9834 22.882 15.4887C22.8359 16.485 22.7987 17.242 22.1888 17.7384L15.8864 24V19.1017L19.441 15.6482V8.01441L11.8798 3.6568L4.42688 8.13496V15.6624H15.8811V19.0893H2.96607C2.73383 19.0893 1.55312 19.0166 1.20388 17.5753C1.16133 17.4015 1.1241 17.1923 1.09041 16.9353C1.04609 16.6162 1 16.1446 1 15.9407V7.3106C1 6.62451 1.3652 5.97743 1.95378 5.62641V5.62464Z" fill="url(#paint1_linear_296_2736)"/>
<defs>
<linearGradient id="paint0_linear_296_2736" x1="15.09" y1="12.9634" x2="8.80164" y2="12.9634" gradientUnits="userSpaceOnUse">
<stop stop-color="#3B8FFF"/>
<stop offset="1" stop-color="#F7B7C1"/>
</linearGradient>
<linearGradient id="paint1_linear_296_2736" x1="22.92" y1="3.06573" x2="-1.01842" y2="18.89" gradientUnits="userSpaceOnUse">
<stop offset="0.0482047" stop-color="#3B8FFF"/>
<stop offset="1" stop-color="#F7B7C1"/>
</linearGradient>
</defs>
</svg>
